<mxfile host="app.diagrams.net" modified="2024-05-29T13:11:28.735Z" agent="Mozilla/5.0 (Windows NT 10.0; Win64; x64) AppleWebKit/537.36 (KHTML, like Gecko) Chrome/125.0.0.0 Safari/537.36" etag="9sC7RPvwTKydgytgSMYY" version="24.4.9" type="device">
  <diagram name="Strona-1" id="MV0WiY2L8KZLrIiTcLED">
    <mxGraphModel dx="989" dy="532" grid="1" gridSize="10" guides="1" tooltips="1" connect="1" arrows="1" fold="1" page="1" pageScale="1" pageWidth="827" pageHeight="1169" math="0" shadow="0">
      <root>
        <mxCell id="0" />
        <mxCell id="1" parent="0" />
        <mxCell id="AddJHdxRREQ5vnj4QWEn-2" value="" style="rounded=1;whiteSpace=wrap;html=1;" vertex="1" parent="1">
          <mxGeometry x="310" y="50" width="20" height="20" as="geometry" />
        </mxCell>
        <mxCell id="AddJHdxRREQ5vnj4QWEn-3" value="" style="rounded=0;whiteSpace=wrap;html=1;" vertex="1" parent="1">
          <mxGeometry x="310" y="60" width="120" height="60" as="geometry" />
        </mxCell>
        <mxCell id="AddJHdxRREQ5vnj4QWEn-4" value="" style="rounded=1;whiteSpace=wrap;html=1;" vertex="1" parent="1">
          <mxGeometry x="50" y="210" width="20" height="20" as="geometry" />
        </mxCell>
        <mxCell id="AddJHdxRREQ5vnj4QWEn-5" value="" style="rounded=0;whiteSpace=wrap;html=1;" vertex="1" parent="1">
          <mxGeometry x="50" y="220" width="120" height="60" as="geometry" />
        </mxCell>
        <mxCell id="AddJHdxRREQ5vnj4QWEn-6" value="" style="rounded=1;whiteSpace=wrap;html=1;" vertex="1" parent="1">
          <mxGeometry x="310" y="210" width="20" height="20" as="geometry" />
        </mxCell>
        <mxCell id="AddJHdxRREQ5vnj4QWEn-7" value="" style="rounded=0;whiteSpace=wrap;html=1;" vertex="1" parent="1">
          <mxGeometry x="310" y="220" width="120" height="60" as="geometry" />
        </mxCell>
        <mxCell id="AddJHdxRREQ5vnj4QWEn-8" value="" style="rounded=1;whiteSpace=wrap;html=1;" vertex="1" parent="1">
          <mxGeometry x="590" y="210" width="20" height="20" as="geometry" />
        </mxCell>
        <mxCell id="AddJHdxRREQ5vnj4QWEn-9" value="" style="rounded=0;whiteSpace=wrap;html=1;" vertex="1" parent="1">
          <mxGeometry x="590" y="220" width="120" height="60" as="geometry" />
        </mxCell>
        <mxCell id="AddJHdxRREQ5vnj4QWEn-10" value="Pakiet Osób" style="text;html=1;align=center;verticalAlign=middle;whiteSpace=wrap;rounded=0;" vertex="1" parent="1">
          <mxGeometry x="340" y="75" width="60" height="30" as="geometry" />
        </mxCell>
        <mxCell id="AddJHdxRREQ5vnj4QWEn-11" value="Pakiet Lokacji" style="text;html=1;align=center;verticalAlign=middle;whiteSpace=wrap;rounded=0;" vertex="1" parent="1">
          <mxGeometry x="80" y="235" width="60" height="30" as="geometry" />
        </mxCell>
        <mxCell id="AddJHdxRREQ5vnj4QWEn-12" value="Pakiet Usług" style="text;html=1;align=center;verticalAlign=middle;whiteSpace=wrap;rounded=0;" vertex="1" parent="1">
          <mxGeometry x="340" y="235" width="60" height="30" as="geometry" />
        </mxCell>
        <mxCell id="AddJHdxRREQ5vnj4QWEn-13" value="Pakiet Produktów" style="text;html=1;align=center;verticalAlign=middle;whiteSpace=wrap;rounded=0;" vertex="1" parent="1">
          <mxGeometry x="620" y="235" width="60" height="30" as="geometry" />
        </mxCell>
        <mxCell id="AddJHdxRREQ5vnj4QWEn-14" value="" style="endArrow=none;dashed=1;html=1;rounded=0;entryX=0.5;entryY=1;entryDx=0;entryDy=0;exitX=0.5;exitY=0;exitDx=0;exitDy=0;" edge="1" parent="1" source="AddJHdxRREQ5vnj4QWEn-7" target="AddJHdxRREQ5vnj4QWEn-3">
          <mxGeometry width="50" height="50" relative="1" as="geometry">
            <mxPoint x="430" y="210" as="sourcePoint" />
            <mxPoint x="480" y="160" as="targetPoint" />
          </mxGeometry>
        </mxCell>
        <mxCell id="AddJHdxRREQ5vnj4QWEn-15" value="" style="endArrow=none;dashed=1;html=1;rounded=0;entryX=1;entryY=0.5;entryDx=0;entryDy=0;exitX=0.5;exitY=0;exitDx=0;exitDy=0;" edge="1" parent="1" source="AddJHdxRREQ5vnj4QWEn-9" target="AddJHdxRREQ5vnj4QWEn-3">
          <mxGeometry width="50" height="50" relative="1" as="geometry">
            <mxPoint x="430" y="210" as="sourcePoint" />
            <mxPoint x="480" y="160" as="targetPoint" />
            <Array as="points">
              <mxPoint x="650" y="90" />
            </Array>
          </mxGeometry>
        </mxCell>
        <mxCell id="AddJHdxRREQ5vnj4QWEn-16" value="" style="endArrow=none;dashed=1;html=1;rounded=0;exitX=0.5;exitY=0;exitDx=0;exitDy=0;entryX=0;entryY=0.5;entryDx=0;entryDy=0;" edge="1" parent="1" source="AddJHdxRREQ5vnj4QWEn-5" target="AddJHdxRREQ5vnj4QWEn-3">
          <mxGeometry width="50" height="50" relative="1" as="geometry">
            <mxPoint x="150" y="170" as="sourcePoint" />
            <mxPoint x="200" y="120" as="targetPoint" />
            <Array as="points">
              <mxPoint x="110" y="90" />
            </Array>
          </mxGeometry>
        </mxCell>
        <mxCell id="AddJHdxRREQ5vnj4QWEn-17" value="" style="endArrow=classic;html=1;rounded=0;" edge="1" parent="1">
          <mxGeometry width="50" height="50" relative="1" as="geometry">
            <mxPoint x="370" y="210" as="sourcePoint" />
            <mxPoint x="370" y="220" as="targetPoint" />
          </mxGeometry>
        </mxCell>
        <mxCell id="AddJHdxRREQ5vnj4QWEn-18" value="" style="endArrow=classic;html=1;rounded=0;" edge="1" parent="1">
          <mxGeometry width="50" height="50" relative="1" as="geometry">
            <mxPoint x="650" y="210" as="sourcePoint" />
            <mxPoint x="650" y="220" as="targetPoint" />
          </mxGeometry>
        </mxCell>
        <mxCell id="AddJHdxRREQ5vnj4QWEn-19" value="" style="endArrow=classic;html=1;rounded=0;entryX=0.5;entryY=0;entryDx=0;entryDy=0;" edge="1" parent="1" target="AddJHdxRREQ5vnj4QWEn-5">
          <mxGeometry width="50" height="50" relative="1" as="geometry">
            <mxPoint x="110" y="210" as="sourcePoint" />
            <mxPoint x="480" y="160" as="targetPoint" />
          </mxGeometry>
        </mxCell>
        <mxCell id="AddJHdxRREQ5vnj4QWEn-20" value="" style="endArrow=none;dashed=1;html=1;dashPattern=1 3;strokeWidth=2;rounded=0;exitX=1;exitY=0.25;exitDx=0;exitDy=0;entryX=0;entryY=0.25;entryDx=0;entryDy=0;" edge="1" parent="1" source="AddJHdxRREQ5vnj4QWEn-7" target="AddJHdxRREQ5vnj4QWEn-9">
          <mxGeometry width="50" height="50" relative="1" as="geometry">
            <mxPoint x="430" y="210" as="sourcePoint" />
            <mxPoint x="480" y="160" as="targetPoint" />
          </mxGeometry>
        </mxCell>
        <mxCell id="AddJHdxRREQ5vnj4QWEn-22" value="" style="endArrow=none;dashed=1;html=1;dashPattern=1 3;strokeWidth=2;rounded=0;exitX=1;exitY=0.75;exitDx=0;exitDy=0;entryX=0;entryY=0.75;entryDx=0;entryDy=0;" edge="1" parent="1" source="AddJHdxRREQ5vnj4QWEn-7" target="AddJHdxRREQ5vnj4QWEn-9">
          <mxGeometry width="50" height="50" relative="1" as="geometry">
            <mxPoint x="470" y="300" as="sourcePoint" />
            <mxPoint x="520" y="250" as="targetPoint" />
          </mxGeometry>
        </mxCell>
        <mxCell id="AddJHdxRREQ5vnj4QWEn-23" value="" style="endArrow=classic;html=1;rounded=0;entryX=0;entryY=0.25;entryDx=0;entryDy=0;" edge="1" parent="1" target="AddJHdxRREQ5vnj4QWEn-9">
          <mxGeometry width="50" height="50" relative="1" as="geometry">
            <mxPoint x="580" y="235" as="sourcePoint" />
            <mxPoint x="480" y="160" as="targetPoint" />
          </mxGeometry>
        </mxCell>
        <mxCell id="AddJHdxRREQ5vnj4QWEn-24" value="" style="endArrow=classic;html=1;rounded=0;entryX=1;entryY=0.75;entryDx=0;entryDy=0;" edge="1" parent="1" target="AddJHdxRREQ5vnj4QWEn-7">
          <mxGeometry width="50" height="50" relative="1" as="geometry">
            <mxPoint x="440" y="265" as="sourcePoint" />
            <mxPoint x="480" y="160" as="targetPoint" />
          </mxGeometry>
        </mxCell>
        <mxCell id="AddJHdxRREQ5vnj4QWEn-25" value="&amp;lt;&amp;lt;Merge&amp;gt;&amp;gt;" style="text;html=1;align=center;verticalAlign=middle;whiteSpace=wrap;rounded=0;" vertex="1" parent="1">
          <mxGeometry x="480" y="200" width="60" height="30" as="geometry" />
        </mxCell>
        <mxCell id="AddJHdxRREQ5vnj4QWEn-26" value="&amp;lt;&amp;lt;Merge&amp;gt;&amp;gt;" style="text;html=1;align=center;verticalAlign=middle;whiteSpace=wrap;rounded=0;" vertex="1" parent="1">
          <mxGeometry x="480" y="270" width="60" height="30" as="geometry" />
        </mxCell>
        <mxCell id="AddJHdxRREQ5vnj4QWEn-27" value="&amp;lt;&amp;lt;Dependency&amp;gt;&amp;gt;" style="text;html=1;align=center;verticalAlign=middle;whiteSpace=wrap;rounded=0;" vertex="1" parent="1">
          <mxGeometry x="550" y="50" width="60" height="30" as="geometry" />
        </mxCell>
        <mxCell id="AddJHdxRREQ5vnj4QWEn-28" value="&amp;lt;&amp;lt;Dependency&amp;gt;&amp;gt;" style="text;html=1;align=center;verticalAlign=middle;whiteSpace=wrap;rounded=0;" vertex="1" parent="1">
          <mxGeometry x="290" y="150" width="60" height="30" as="geometry" />
        </mxCell>
        <mxCell id="AddJHdxRREQ5vnj4QWEn-29" value="&amp;lt;&amp;lt;Dependency&amp;gt;&amp;gt;" style="text;html=1;align=center;verticalAlign=middle;whiteSpace=wrap;rounded=0;" vertex="1" parent="1">
          <mxGeometry x="160" y="60" width="60" height="30" as="geometry" />
        </mxCell>
        <mxCell id="AddJHdxRREQ5vnj4QWEn-30" value="" style="endArrow=none;dashed=1;html=1;dashPattern=1 3;strokeWidth=2;rounded=0;entryX=0.5;entryY=1;entryDx=0;entryDy=0;exitX=0.5;exitY=1;exitDx=0;exitDy=0;" edge="1" parent="1" source="AddJHdxRREQ5vnj4QWEn-5" target="AddJHdxRREQ5vnj4QWEn-7">
          <mxGeometry width="50" height="50" relative="1" as="geometry">
            <mxPoint x="250" y="330" as="sourcePoint" />
            <mxPoint x="280" y="290" as="targetPoint" />
            <Array as="points">
              <mxPoint x="240" y="320" />
            </Array>
          </mxGeometry>
        </mxCell>
        <mxCell id="AddJHdxRREQ5vnj4QWEn-31" value="" style="endArrow=none;dashed=1;html=1;dashPattern=1 3;strokeWidth=2;rounded=0;entryX=0.5;entryY=1;entryDx=0;entryDy=0;" edge="1" parent="1" target="AddJHdxRREQ5vnj4QWEn-9">
          <mxGeometry width="50" height="50" relative="1" as="geometry">
            <mxPoint x="110" y="280" as="sourcePoint" />
            <mxPoint x="395" y="360" as="targetPoint" />
            <Array as="points">
              <mxPoint x="370" y="440" />
            </Array>
          </mxGeometry>
        </mxCell>
        <mxCell id="AddJHdxRREQ5vnj4QWEn-32" value="" style="endArrow=classic;html=1;rounded=0;" edge="1" parent="1">
          <mxGeometry width="50" height="50" relative="1" as="geometry">
            <mxPoint x="360" y="290" as="sourcePoint" />
            <mxPoint x="370" y="280" as="targetPoint" />
          </mxGeometry>
        </mxCell>
        <mxCell id="AddJHdxRREQ5vnj4QWEn-33" value="" style="endArrow=classic;html=1;rounded=0;" edge="1" parent="1">
          <mxGeometry width="50" height="50" relative="1" as="geometry">
            <mxPoint x="640" y="290" as="sourcePoint" />
            <mxPoint x="650" y="280" as="targetPoint" />
          </mxGeometry>
        </mxCell>
        <mxCell id="AddJHdxRREQ5vnj4QWEn-34" value="&amp;lt;&amp;lt;import&amp;gt;&amp;gt;" style="text;html=1;align=center;verticalAlign=middle;whiteSpace=wrap;rounded=0;" vertex="1" parent="1">
          <mxGeometry x="210" y="270" width="60" height="30" as="geometry" />
        </mxCell>
        <mxCell id="AddJHdxRREQ5vnj4QWEn-35" value="&amp;lt;&amp;lt;import&amp;gt;&amp;gt;" style="text;html=1;align=center;verticalAlign=middle;whiteSpace=wrap;rounded=0;" vertex="1" parent="1">
          <mxGeometry x="340" y="380" width="60" height="30" as="geometry" />
        </mxCell>
      </root>
    </mxGraphModel>
  </diagram>
</mxfile>
